<mxfile host="app.diagrams.net" modified="2023-04-26T20:35:44.876Z" agent="Mozilla/5.0 (Windows NT 10.0; Win64; x64) AppleWebKit/537.36 (KHTML, like Gecko) Chrome/112.0.0.0 Safari/537.36" etag="FBU2r-A91utE2u0RF4g0" version="21.2.2" type="device">
  <diagram name="Page-1" id="EHpoGEcuDKw1KD1EvJqo">
    <mxGraphModel dx="1562" dy="837" grid="1" gridSize="10" guides="1" tooltips="1" connect="1" arrows="1" fold="1" page="1" pageScale="1" pageWidth="850" pageHeight="1100" math="0" shadow="0">
      <root>
        <mxCell id="0" />
        <mxCell id="1" parent="0" />
        <mxCell id="79qyaUO4blCRMWAc_sj--2" value="Repository 1" style="swimlane;mt=1;whiteSpace=wrap;html=1;startSize=23;fontSize=23;fillColor=#f5f5f5;fontColor=#333333;strokeColor=#666666;glass=0;rounded=1;" parent="1" vertex="1">
          <mxGeometry x="360" y="190" width="190" height="210" as="geometry" />
        </mxCell>
        <mxCell id="lDM20v8WPxeiTitt0xiw-2" value="Binding File 1" style="html=1;whiteSpace=wrap;fontSize=21;fillColor=#dae8fc;strokeColor=#6c8ebf;" parent="79qyaUO4blCRMWAc_sj--2" vertex="1">
          <mxGeometry x="30" y="80" width="130" height="50" as="geometry" />
        </mxCell>
        <mxCell id="79qyaUO4blCRMWAc_sj--6" value="Repository 2" style="swimlane;mt=1;whiteSpace=wrap;html=1;startSize=23;fontSize=23;fillColor=#f5f5f5;fontColor=#333333;strokeColor=#666666;rounded=1;shadow=0;" parent="1" vertex="1">
          <mxGeometry x="360" y="520" width="190" height="200" as="geometry" />
        </mxCell>
        <mxCell id="lDM20v8WPxeiTitt0xiw-1" value="Binding file 2" style="html=1;whiteSpace=wrap;fontSize=21;fillColor=#dae8fc;strokeColor=#6c8ebf;" parent="79qyaUO4blCRMWAc_sj--6" vertex="1">
          <mxGeometry x="30" y="80" width="130" height="50" as="geometry" />
        </mxCell>
        <mxCell id="79qyaUO4blCRMWAc_sj--7" value="" style="endArrow=classic;html=1;rounded=0;exitX=0;exitY=0;exitDx=55;exitDy=0;entryX=0;entryY=0.5;entryDx=0;entryDy=0;exitPerimeter=0;" parent="1" source="lDM20v8WPxeiTitt0xiw-7" target="79qyaUO4blCRMWAc_sj--2" edge="1">
          <mxGeometry width="50" height="50" relative="1" as="geometry">
            <mxPoint x="200" y="460" as="sourcePoint" />
            <mxPoint x="490" y="520" as="targetPoint" />
          </mxGeometry>
        </mxCell>
        <mxCell id="79qyaUO4blCRMWAc_sj--9" value="" style="endArrow=classic;html=1;rounded=0;entryX=0;entryY=0.5;entryDx=0;entryDy=0;exitX=0;exitY=0;exitDx=55;exitDy=0;exitPerimeter=0;" parent="1" source="lDM20v8WPxeiTitt0xiw-7" target="79qyaUO4blCRMWAc_sj--6" edge="1">
          <mxGeometry width="50" height="50" relative="1" as="geometry">
            <mxPoint x="200" y="460" as="sourcePoint" />
            <mxPoint x="400" y="495" as="targetPoint" />
          </mxGeometry>
        </mxCell>
        <mxCell id="qud5nBaDtFVcCCz-iNkt-1" value="" style="endArrow=classic;html=1;rounded=0;exitX=1;exitY=0.5;exitDx=0;exitDy=0;entryX=0;entryY=0.5;entryDx=0;entryDy=0;" parent="1" source="lDM20v8WPxeiTitt0xiw-2" target="lDM20v8WPxeiTitt0xiw-4" edge="1">
          <mxGeometry width="50" height="50" relative="1" as="geometry">
            <mxPoint x="509.4000000000001" y="232.24" as="sourcePoint" />
            <mxPoint x="709.9999999999995" y="190" as="targetPoint" />
          </mxGeometry>
        </mxCell>
        <mxCell id="qud5nBaDtFVcCCz-iNkt-2" value="" style="endArrow=classic;html=1;rounded=0;entryX=0;entryY=0.5;entryDx=0;entryDy=0;exitX=1;exitY=0.5;exitDx=0;exitDy=0;" parent="1" source="lDM20v8WPxeiTitt0xiw-2" target="lDM20v8WPxeiTitt0xiw-5" edge="1">
          <mxGeometry width="50" height="50" relative="1" as="geometry">
            <mxPoint x="550" y="120" as="sourcePoint" />
            <mxPoint x="709.9999999999995" y="460" as="targetPoint" />
          </mxGeometry>
        </mxCell>
        <mxCell id="qud5nBaDtFVcCCz-iNkt-5" value="" style="endArrow=classic;html=1;rounded=0;exitX=1;exitY=0.5;exitDx=0;exitDy=0;entryX=0;entryY=0.5;entryDx=0;entryDy=0;" parent="1" source="lDM20v8WPxeiTitt0xiw-1" target="lDM20v8WPxeiTitt0xiw-4" edge="1">
          <mxGeometry width="50" height="50" relative="1" as="geometry">
            <mxPoint x="511.0499999999997" y="587.56" as="sourcePoint" />
            <mxPoint x="709.9999999999995" y="190" as="targetPoint" />
          </mxGeometry>
        </mxCell>
        <mxCell id="qud5nBaDtFVcCCz-iNkt-6" value="" style="endArrow=classic;html=1;rounded=0;exitX=1;exitY=0.5;exitDx=0;exitDy=0;entryX=0;entryY=0.5;entryDx=0;entryDy=0;" parent="1" source="lDM20v8WPxeiTitt0xiw-1" target="lDM20v8WPxeiTitt0xiw-5" edge="1">
          <mxGeometry width="50" height="50" relative="1" as="geometry">
            <mxPoint x="509.5500000000002" y="589" as="sourcePoint" />
            <mxPoint x="709.9999999999995" y="460" as="targetPoint" />
          </mxGeometry>
        </mxCell>
        <mxCell id="qud5nBaDtFVcCCz-iNkt-7" value="" style="endArrow=classic;html=1;rounded=0;entryX=0;entryY=0.5;entryDx=0;entryDy=0;exitX=1;exitY=0.5;exitDx=0;exitDy=0;" parent="1" source="lDM20v8WPxeiTitt0xiw-1" target="lDM20v8WPxeiTitt0xiw-6" edge="1">
          <mxGeometry width="50" height="50" relative="1" as="geometry">
            <mxPoint x="511.0499999999997" y="589" as="sourcePoint" />
            <mxPoint x="709.9999999999995" y="720" as="targetPoint" />
          </mxGeometry>
        </mxCell>
        <mxCell id="qud5nBaDtFVcCCz-iNkt-8" value="" style="endArrow=classic;html=1;rounded=0;exitX=1;exitY=0.5;exitDx=0;exitDy=0;entryX=0.5;entryY=0;entryDx=0;entryDy=0;" parent="1" source="lDM20v8WPxeiTitt0xiw-4" target="lDM20v8WPxeiTitt0xiw-8" edge="1">
          <mxGeometry width="50" height="50" relative="1" as="geometry">
            <mxPoint x="909.9999999999995" y="190" as="sourcePoint" />
            <mxPoint x="969.9999999999995" y="250" as="targetPoint" />
          </mxGeometry>
        </mxCell>
        <mxCell id="qud5nBaDtFVcCCz-iNkt-9" value="" style="endArrow=classic;html=1;rounded=0;exitX=1;exitY=0.5;exitDx=0;exitDy=0;entryX=0.5;entryY=0;entryDx=0;entryDy=0;" parent="1" source="lDM20v8WPxeiTitt0xiw-5" target="lDM20v8WPxeiTitt0xiw-8" edge="1">
          <mxGeometry width="50" height="50" relative="1" as="geometry">
            <mxPoint x="909.9999999999995" y="460" as="sourcePoint" />
            <mxPoint x="970.9999999999995" y="269" as="targetPoint" />
          </mxGeometry>
        </mxCell>
        <mxCell id="qud5nBaDtFVcCCz-iNkt-10" value="" style="endArrow=classic;html=1;rounded=0;exitX=1;exitY=0.5;exitDx=0;exitDy=0;entryX=0.5;entryY=0;entryDx=0;entryDy=0;" parent="1" source="lDM20v8WPxeiTitt0xiw-5" edge="1" target="lDM20v8WPxeiTitt0xiw-9">
          <mxGeometry width="50" height="50" relative="1" as="geometry">
            <mxPoint x="909.9999999999995" y="460" as="sourcePoint" />
            <mxPoint x="969.9999999999995" y="480" as="targetPoint" />
          </mxGeometry>
        </mxCell>
        <mxCell id="qud5nBaDtFVcCCz-iNkt-15" value="" style="endArrow=classic;html=1;rounded=0;exitX=1;exitY=0.5;exitDx=0;exitDy=0;entryX=0.5;entryY=0;entryDx=0;entryDy=0;" parent="1" source="lDM20v8WPxeiTitt0xiw-6" target="lDM20v8WPxeiTitt0xiw-8" edge="1">
          <mxGeometry width="50" height="50" relative="1" as="geometry">
            <mxPoint x="909.9999999999995" y="720" as="sourcePoint" />
            <mxPoint x="969.5999999999995" y="263.20000000000005" as="targetPoint" />
          </mxGeometry>
        </mxCell>
        <mxCell id="qud5nBaDtFVcCCz-iNkt-16" value="" style="endArrow=classic;html=1;rounded=0;entryX=0.5;entryY=0;entryDx=0;entryDy=0;exitX=1;exitY=0.5;exitDx=0;exitDy=0;" parent="1" source="lDM20v8WPxeiTitt0xiw-6" target="lDM20v8WPxeiTitt0xiw-10" edge="1">
          <mxGeometry width="50" height="50" relative="1" as="geometry">
            <mxPoint x="910" y="720" as="sourcePoint" />
            <mxPoint x="969.9999999999995" y="710" as="targetPoint" />
          </mxGeometry>
        </mxCell>
        <mxCell id="lDM20v8WPxeiTitt0xiw-4" value="JCAlgTest Data Header" style="html=1;whiteSpace=wrap;fontSize=23;fontStyle=1;fillColor=#d0cee2;strokeColor=#56517e;" parent="1" vertex="1">
          <mxGeometry x="660" y="170" width="180" height="110" as="geometry" />
        </mxCell>
        <mxCell id="lDM20v8WPxeiTitt0xiw-5" value="CROCS Data Header" style="html=1;whiteSpace=wrap;fontSize=23;fontStyle=1;fillColor=#d0cee2;strokeColor=#56517e;" parent="1" vertex="1">
          <mxGeometry x="660" y="400" width="190" height="110" as="geometry" />
        </mxCell>
        <mxCell id="lDM20v8WPxeiTitt0xiw-6" value="NÃšKIB Data Header" style="html=1;whiteSpace=wrap;fontSize=22;fontStyle=1;fillColor=#d0cee2;strokeColor=#56517e;" parent="1" vertex="1">
          <mxGeometry x="660" y="630" width="190" height="110" as="geometry" />
        </mxCell>
        <mxCell id="lDM20v8WPxeiTitt0xiw-7" value="Sec-certs" style="verticalAlign=middle;align=center;spacingTop=8;spacingLeft=2;spacingRight=12;shape=cube;size=10;direction=south;fontStyle=7;html=1;whiteSpace=wrap;fontSize=30;fillColor=#f8cecc;strokeColor=#b85450;" parent="1" vertex="1">
          <mxGeometry x="100" y="400" width="180" height="120" as="geometry" />
        </mxCell>
        <mxCell id="lDM20v8WPxeiTitt0xiw-8" value="JCAlgTest for Infineon&amp;nbsp;" style="html=1;whiteSpace=wrap;direction=north;flipH=0;flipV=1;fontSize=27;horizontal=1;fontStyle=0;fillColor=#bac8d3;strokeColor=#23445d;" parent="1" vertex="1">
          <mxGeometry x="960" y="210" width="170" height="80" as="geometry" />
        </mxCell>
        <mxCell id="lDM20v8WPxeiTitt0xiw-9" value="ECTester for JCAPI 3.0.5" style="html=1;whiteSpace=wrap;direction=north;flipH=0;flipV=1;fontSize=27;horizontal=1;fontStyle=0;fillColor=#bac8d3;strokeColor=#23445d;" parent="1" vertex="1">
          <mxGeometry x="960" y="400" width="170" height="80" as="geometry" />
        </mxCell>
        <mxCell id="lDM20v8WPxeiTitt0xiw-10" value="Old &amp;amp; Confidential Metadata" style="html=1;whiteSpace=wrap;direction=north;flipH=0;flipV=1;fontSize=27;horizontal=1;fontStyle=0;fillColor=#bac8d3;strokeColor=#23445d;" parent="1" vertex="1">
          <mxGeometry x="960" y="600" width="170" height="100" as="geometry" />
        </mxCell>
      </root>
    </mxGraphModel>
  </diagram>
</mxfile>
